<svg width="119" height="40" viewBox="0 0 119 40" fill="none" xmlns="http://www.w3.org/2000/svg">
<rect width="119" height="40" rx="8" fill="#2D3136"/>
<path fill-rule="evenodd" clip-rule="evenodd" d="M19.6464 13.6464C19.8417 13.4512 20.1583 13.4512 20.3536 13.6464L23.6869 16.9798C23.8821 17.175 23.8821 17.4916 23.6869 17.6869C23.4916 17.8821 23.175 17.8821 22.9798 17.6869L20.5 15.2071V22C20.5 22.2761 20.2761 22.5 20 22.5C19.7239 22.5 19.5 22.2761 19.5 22V15.2071L17.0202 17.6869C16.825 17.8821 16.5084 17.8821 16.3131 17.6869C16.1179 17.4916 16.1179 17.175 16.3131 16.9798L19.6464 13.6464ZM14 21.5C14.2761 21.5 14.5 21.7239 14.5 22V24.6667C14.5 24.8877 14.5878 25.0996 14.7441 25.2559C14.9004 25.4122 15.1123 25.5 15.3333 25.5H24.6667C24.8877 25.5 25.0996 25.4122 25.2559 25.2559C25.4122 25.0996 25.5 24.8877 25.5 24.6667V22C25.5 21.7239 25.7239 21.5 26 21.5C26.2761 21.5 26.5 21.7239 26.5 22V24.6667C26.5 25.1529 26.3068 25.6192 25.963 25.963C25.6192 26.3068 25.1529 26.5 24.6667 26.5H15.3333C14.8471 26.5 14.3808 26.3068 14.037 25.963C13.6932 25.6192 13.5 25.1529 13.5 24.6667V22C13.5 21.7239 13.7239 21.5 14 21.5Z" fill="#59B2FF"/>
<path d="M43.082 22.7793C43.082 23.3717 42.9362 23.8822 42.6445 24.3105C42.3574 24.7389 41.9427 25.0671 41.4004 25.2949C40.8626 25.5228 40.2201 25.6367 39.4727 25.6367C39.1081 25.6367 38.7594 25.6162 38.4268 25.5752C38.0941 25.5342 37.7796 25.4749 37.4834 25.3975C37.1917 25.3154 36.9251 25.2174 36.6836 25.1035V23.5586C37.0892 23.7363 37.5426 23.8981 38.0439 24.0439C38.5452 24.1852 39.0557 24.2559 39.5752 24.2559C39.999 24.2559 40.3499 24.2012 40.6279 24.0918C40.9105 23.9779 41.1201 23.8184 41.2568 23.6133C41.3936 23.4036 41.4619 23.1598 41.4619 22.8818C41.4619 22.5856 41.3822 22.335 41.2227 22.1299C41.0632 21.9248 40.8216 21.738 40.498 21.5693C40.179 21.3962 39.778 21.2116 39.2949 21.0156C38.9668 20.8835 38.6523 20.7331 38.3516 20.5645C38.0553 20.3958 37.791 20.1976 37.5586 19.9697C37.3262 19.7419 37.1416 19.473 37.0049 19.1631C36.8727 18.8486 36.8066 18.4795 36.8066 18.0557C36.8066 17.4906 36.9411 17.0075 37.21 16.6064C37.4834 16.2054 37.8662 15.8978 38.3584 15.6836C38.8551 15.4694 39.4339 15.3623 40.0947 15.3623C40.6188 15.3623 41.111 15.417 41.5713 15.5264C42.0361 15.6357 42.4919 15.7907 42.9385 15.9912L42.4189 17.3105C42.0088 17.1419 41.61 17.0075 41.2227 16.9072C40.8398 16.807 40.4479 16.7568 40.0469 16.7568C39.7005 16.7568 39.4066 16.8092 39.165 16.9141C38.9235 17.0189 38.7389 17.167 38.6113 17.3584C38.4883 17.5452 38.4268 17.7686 38.4268 18.0283C38.4268 18.32 38.4974 18.5661 38.6387 18.7666C38.7845 18.9626 39.0078 19.1426 39.3086 19.3066C39.6139 19.4707 40.0059 19.653 40.4844 19.8535C41.0358 20.0814 41.5029 20.3206 41.8857 20.5713C42.2731 20.8219 42.5693 21.1227 42.7744 21.4736C42.9795 21.82 43.082 22.2552 43.082 22.7793ZM47.8604 17.7891C48.5348 17.7891 49.1136 17.9281 49.5967 18.2061C50.0798 18.484 50.4512 18.8783 50.7109 19.3887C50.9707 19.8991 51.1006 20.5098 51.1006 21.2207V22.082H46.0488C46.0671 22.8158 46.263 23.3809 46.6367 23.7773C47.015 24.1738 47.5436 24.3721 48.2227 24.3721C48.7057 24.3721 49.1387 24.3265 49.5215 24.2354C49.9089 24.1396 50.3076 24.0007 50.7178 23.8184V25.124C50.3395 25.3018 49.9544 25.4316 49.5625 25.5137C49.1706 25.5957 48.7012 25.6367 48.1543 25.6367C47.4115 25.6367 46.7575 25.4932 46.1924 25.2061C45.6318 24.9144 45.1921 24.4814 44.873 23.9072C44.5586 23.333 44.4014 22.6198 44.4014 21.7676C44.4014 20.9199 44.5449 20.1999 44.832 19.6074C45.1191 19.015 45.5225 18.5638 46.042 18.2539C46.5615 17.944 47.1676 17.7891 47.8604 17.7891ZM47.8604 18.999C47.3545 18.999 46.9443 19.1631 46.6299 19.4912C46.32 19.8193 46.1377 20.3001 46.083 20.9336H49.5283C49.5238 20.5553 49.46 20.2204 49.3369 19.9287C49.2184 19.637 49.0361 19.4092 48.79 19.2451C48.5485 19.0811 48.2386 18.999 47.8604 18.999ZM54.5254 25.5H52.9121V14.8633H54.5254V25.5ZM59.8369 17.7891C60.5114 17.7891 61.0902 17.9281 61.5732 18.2061C62.0563 18.484 62.4277 18.8783 62.6875 19.3887C62.9473 19.8991 63.0771 20.5098 63.0771 21.2207V22.082H58.0254C58.0436 22.8158 58.2396 23.3809 58.6133 23.7773C58.9915 24.1738 59.5202 24.3721 60.1992 24.3721C60.6823 24.3721 61.1152 24.3265 61.498 24.2354C61.8854 24.1396 62.2842 24.0007 62.6943 23.8184V25.124C62.3161 25.3018 61.931 25.4316 61.5391 25.5137C61.1471 25.5957 60.6777 25.6367 60.1309 25.6367C59.388 25.6367 58.734 25.4932 58.1689 25.2061C57.6084 24.9144 57.1686 24.4814 56.8496 23.9072C56.5352 23.333 56.3779 22.6198 56.3779 21.7676C56.3779 20.9199 56.5215 20.1999 56.8086 19.6074C57.0957 19.015 57.499 18.5638 58.0186 18.2539C58.5381 17.944 59.1442 17.7891 59.8369 17.7891ZM59.8369 18.999C59.3311 18.999 58.9209 19.1631 58.6064 19.4912C58.2965 19.8193 58.1143 20.3001 58.0596 20.9336H61.5049C61.5003 20.5553 61.4365 20.2204 61.3135 19.9287C61.195 19.637 61.0127 19.4092 60.7666 19.2451C60.5251 19.0811 60.2152 18.999 59.8369 18.999ZM67.9375 25.6367C67.222 25.6367 66.6022 25.4977 66.0781 25.2197C65.554 24.9417 65.1507 24.5156 64.8682 23.9414C64.5856 23.3672 64.4443 22.638 64.4443 21.7539C64.4443 20.8333 64.5993 20.0814 64.9092 19.498C65.2191 18.9147 65.6475 18.484 66.1943 18.2061C66.7458 17.9281 67.377 17.7891 68.0879 17.7891C68.5391 17.7891 68.9469 17.8346 69.3115 17.9258C69.6807 18.0124 69.9928 18.1195 70.248 18.2471L69.7695 19.5322C69.4915 19.4183 69.2067 19.3226 68.915 19.2451C68.6234 19.1676 68.3431 19.1289 68.0742 19.1289C67.6322 19.1289 67.263 19.2269 66.9668 19.4229C66.6751 19.6188 66.4564 19.9105 66.3105 20.2979C66.1693 20.6852 66.0986 21.166 66.0986 21.7402C66.0986 22.2962 66.1715 22.7656 66.3174 23.1484C66.4632 23.5267 66.6797 23.8138 66.9668 24.0098C67.2539 24.2012 67.6071 24.2969 68.0264 24.2969C68.4411 24.2969 68.8125 24.2467 69.1406 24.1465C69.4688 24.0462 69.7786 23.9163 70.0703 23.7568V25.1514C69.7832 25.3154 69.4756 25.4362 69.1475 25.5137C68.8193 25.5957 68.416 25.6367 67.9375 25.6367ZM73.4541 17.9326V25.5H71.8477V17.9326H73.4541ZM72.6611 15.0342C72.9072 15.0342 73.1191 15.1003 73.2969 15.2324C73.4792 15.3646 73.5703 15.5924 73.5703 15.916C73.5703 16.235 73.4792 16.4629 73.2969 16.5996C73.1191 16.7318 72.9072 16.7979 72.6611 16.7979C72.4059 16.7979 72.1895 16.7318 72.0117 16.5996C71.8385 16.4629 71.752 16.235 71.752 15.916C71.752 15.5924 71.8385 15.3646 72.0117 15.2324C72.1895 15.1003 72.4059 15.0342 72.6611 15.0342ZM82.457 21.6992C82.457 22.3281 82.375 22.8864 82.2109 23.374C82.0469 23.8617 81.8076 24.2741 81.4932 24.6113C81.1787 24.944 80.8005 25.1992 80.3584 25.377C79.9163 25.5501 79.4173 25.6367 78.8613 25.6367C78.3418 25.6367 77.8656 25.5501 77.4326 25.377C76.9997 25.1992 76.6237 24.944 76.3047 24.6113C75.9902 24.2741 75.7464 23.8617 75.5732 23.374C75.4001 22.8864 75.3135 22.3281 75.3135 21.6992C75.3135 20.8652 75.457 20.1589 75.7441 19.5801C76.0358 18.9967 76.4505 18.5524 76.9883 18.2471C77.526 17.9417 78.1663 17.7891 78.9092 17.7891C79.6064 17.7891 80.2217 17.9417 80.7549 18.2471C81.2881 18.5524 81.7051 18.9967 82.0059 19.5801C82.3066 20.1634 82.457 20.8698 82.457 21.6992ZM76.9678 21.6992C76.9678 22.2507 77.0339 22.7223 77.166 23.1143C77.3027 23.5062 77.5124 23.807 77.7949 24.0166C78.0775 24.2217 78.4421 24.3242 78.8887 24.3242C79.3353 24.3242 79.6999 24.2217 79.9824 24.0166C80.265 23.807 80.4723 23.5062 80.6045 23.1143C80.7367 22.7223 80.8027 22.2507 80.8027 21.6992C80.8027 21.1478 80.7367 20.6807 80.6045 20.2979C80.4723 19.9105 80.265 19.6165 79.9824 19.416C79.6999 19.2109 79.333 19.1084 78.8818 19.1084C78.2165 19.1084 77.7311 19.3317 77.4258 19.7783C77.1204 20.2249 76.9678 20.8652 76.9678 21.6992ZM88.2471 17.7891C89.0993 17.7891 89.7624 18.0101 90.2363 18.4521C90.7148 18.8896 90.9541 19.5938 90.9541 20.5645V25.5H89.3477V20.8652C89.3477 20.2773 89.2269 19.8376 88.9854 19.5459C88.7438 19.2497 88.3701 19.1016 87.8643 19.1016C87.1305 19.1016 86.6201 19.3271 86.333 19.7783C86.0505 20.2295 85.9092 20.8835 85.9092 21.7402V25.5H84.3027V17.9326H85.5537L85.7793 18.958H85.8682C86.0322 18.6937 86.235 18.4772 86.4766 18.3086C86.7227 18.1354 86.9961 18.0055 87.2969 17.9189C87.6022 17.8324 87.9189 17.7891 88.2471 17.7891ZM96.1699 17.7891C97.127 17.7891 97.8493 18.001 98.3369 18.4248C98.8291 18.8486 99.0752 19.5094 99.0752 20.4072V25.5H97.9336L97.626 24.4268H97.5713C97.3571 24.7002 97.1361 24.9258 96.9082 25.1035C96.6803 25.2812 96.416 25.4134 96.1152 25.5C95.819 25.5911 95.4567 25.6367 95.0283 25.6367C94.5771 25.6367 94.1738 25.5547 93.8184 25.3906C93.4629 25.222 93.1826 24.9668 92.9775 24.625C92.7725 24.2832 92.6699 23.8503 92.6699 23.3262C92.6699 22.5469 92.9593 21.9613 93.5381 21.5693C94.1214 21.1774 95.001 20.9609 96.1768 20.9199L97.4893 20.8721V20.4756C97.4893 19.9515 97.3662 19.5778 97.1201 19.3545C96.8786 19.1312 96.5368 19.0195 96.0947 19.0195C95.7165 19.0195 95.3496 19.0742 94.9941 19.1836C94.6387 19.293 94.2923 19.4274 93.9551 19.5869L93.4355 18.4521C93.8047 18.2562 94.224 18.0967 94.6934 17.9736C95.1673 17.8506 95.6595 17.7891 96.1699 17.7891ZM97.4824 21.8838L96.5049 21.918C95.7028 21.9453 95.14 22.082 94.8164 22.3281C94.4928 22.5742 94.3311 22.9115 94.3311 23.3398C94.3311 23.7135 94.4427 23.987 94.666 24.1602C94.8893 24.3288 95.1833 24.4131 95.5479 24.4131C96.1038 24.4131 96.5641 24.2559 96.9287 23.9414C97.2979 23.6224 97.4824 23.1553 97.4824 22.54V21.8838ZM105.159 17.7891C105.287 17.7891 105.426 17.7959 105.576 17.8096C105.727 17.8232 105.856 17.8415 105.966 17.8643L105.815 19.3682C105.72 19.3408 105.601 19.3203 105.46 19.3066C105.323 19.293 105.2 19.2861 105.091 19.2861C104.804 19.2861 104.53 19.334 104.271 19.4297C104.011 19.5208 103.781 19.6621 103.58 19.8535C103.38 20.0404 103.222 20.2751 103.108 20.5576C102.994 20.8402 102.938 21.1683 102.938 21.542V25.5H101.324V17.9326H102.582L102.801 19.2656H102.876C103.026 18.9967 103.213 18.7507 103.437 18.5273C103.66 18.304 103.915 18.1263 104.202 17.9941C104.494 17.8574 104.813 17.7891 105.159 17.7891Z" fill="#F9F9F9"/>
</svg>
